<svg xmlns="http://www.w3.org/2000/svg" xmlns:xlink="http://www.w3.org/1999/xlink" version="1.1" id="Layer_1" x="0px" y="0px" style="enable-background:new 0 0 1000 1000;" xml:space="preserve" viewBox="68.78 385 863.4 229.93">
<style type="text/css">
	.st0{fill:#FFDE22;}
</style>
<g>
	<g>
		<path d="M495.16,529.31l51.16,46.61h-31.88l-37.77-34.42l-26.92,16.21v18.21h-22.9V468.77h22.9v63.75l57.46-35.49h39.11    L495.16,529.31z"/>
		<path d="M660.84,532.25l-0.27,43.66h-23.03v-34.96c0-16.74-5.63-25.45-24.51-25.45c-15.4,0-32.01,7.9-39.11,16.21v44.2h-22.9    V468.77h22.9v42.05c11.25-8.84,26.79-15.13,45.94-15.13C640.89,495.69,660.57,503.19,660.84,532.25z"/>
		<path d="M780.44,497.03v78.88h-22.9v-13.79c-11.25,8.84-26.79,15.13-45.94,15.13c-21.03,0-40.71-7.5-40.98-36.56l0.27-43.66h23.04    v34.96c0,16.74,5.62,25.45,24.51,25.45c15.4,0,32.01-7.9,39.11-16.21v-44.2H780.44z"/>
		<path d="M814.33,572.3c0,24.11-7.23,37.1-32.68,37.1c-7.9,0-16.07-0.67-23.7-2.01V588.9c6.56,0.8,10.58,1.34,16.47,1.34    c13.93,0,16.88-2.54,16.88-19.15v-74.06h23.04V572.3z M814.33,468.77v19.96h-23.04v-19.96H814.33z"/>
		<path d="M822.9,536.54c0-29.06,21.96-40.85,54.64-40.85c32.54,0,54.64,11.79,54.64,40.85c0,28.93-22.1,40.71-54.64,40.71    C844.86,577.25,822.9,565.47,822.9,536.54z M909.15,536.54c0-16.47-10.45-21.7-31.61-21.7c-21.29,0-31.74,5.22-31.74,21.7    c0,16.34,10.45,21.56,31.74,21.56C898.7,558.1,909.15,552.88,909.15,536.54z"/>
	</g>
	<g>
		<path d="M403.58,406.43c0,12.49-7.88,21.43-23.85,21.43c-15.97,0-23.85-8.94-23.85-21.43c0-12.49,7.88-21.43,23.85-21.43    C395.7,385,403.58,393.94,403.58,406.43z M397.9,406.43c0-10.65-7.1-15.76-18.17-15.76c-11.14,0-18.17,5.11-18.17,15.76    s7.03,15.76,18.17,15.76C390.81,422.19,397.9,417.08,397.9,406.43z M387.68,410.27l3.48,5.61h-5.75l-3.05-5.04h-7.81v5.04h-4.83    v-18.81h14.83c4.26,0,7.17,2.7,7.17,6.88C391.73,407,390.17,409.27,387.68,410.27z M374.55,406.79h8.66c1.42,0,3.69,0,3.69-2.84    s-2.27-2.84-3.69-2.84h-8.66V406.79z"/>
	</g>
	<g>
		<path d="M218.69,557.07c-2.73,0-5.5-0.14-8.27-0.42c-0.92-0.09-1.96-0.2-3.09-0.39l2.17-17.18c5.7,0.45,10.87,0.55,15.82,0.31    l1.31,17.27C224.02,556.93,221.37,557.07,218.69,557.07z"/>
	</g>
	<g>
		<path d="M258.04,476.36l-98.46-0.04l1.2-9.73c1.56-12.59,7.88-23.89,17.81-31.81c9.94-7.93,22.38-11.6,35.05-10.33    c10.98,1.1,21.35,5.98,29.19,13.73c7.72,7.63,12.7,17.74,14.02,28.45L258.04,476.36z M180.89,459l55.84,0.02    c-4.64-9.43-13.97-16.24-24.83-17.33C198.73,440.37,186.46,447.68,180.89,459z"/>
	</g>
	<g>
		<path d="M219.99,556.85c-3.79,0-7.72-0.16-11.87-0.49l-0.47-0.05c-20.59-2.78-39.05-13.32-51.98-29.66    c-12.95-16.38-18.94-36.83-16.85-57.59c0.07-0.72,0.16-1.61,0.37-2.62l1.41-6.95l215.8,0.1l19.02,26l-83.77,23.17    c-2.05,4.33-5.51,11.26-8.48,15.31c-13.32,18.36-33.93,30.26-56.51,32.6l-0.47,0.04C224.14,556.8,222.09,556.85,219.99,556.85z     M209.74,539.1c5.51,0.43,10.53,0.53,15.34,0.3c17.6-1.89,33.65-11.2,44.07-25.56c2.45-3.34,6.43-11.51,8.38-15.89l1.66-3.74    l62.57-17.31l-52.56-0.03l-133.46-0.05C155.55,508,178.26,534.73,209.74,539.1z"/>
	</g>
	<g>
		<path class="st0" d="M280.8,606.26l-120.2-0.07c14.03-21.89,39.57-35.28,67.19-32.5C250.39,575.96,269.44,588.51,280.8,606.26z"/>
		<path d="M296.64,614.93l-151.87-0.08l8.54-13.33c7.85-12.24,18.89-22.13,31.95-28.59c13.43-6.64,28.43-9.36,43.4-7.86    c24.49,2.46,46.16,15.77,59.44,36.52L296.64,614.93z M179.32,597.54l82.75,0.04c-9.7-8.56-21.9-13.94-35.15-15.27    C209.28,580.54,192.18,586.21,179.32,597.54z"/>
	</g>
	<g>
		<path d="M153.8,559.23l-13.44-10.94c5.23-6.42,5.64-12.22,1.15-16.33c-3.65-3.34-9.89-4.7-13.6-1.08    c-9.57,9.33-25.42,11.98-38.53,6.45c-13.03-5.5-20.53-17.73-20.59-33.58c-0.09-2.53,0.16-13.09,9.75-23.44    c12.81-13.82,36.07-20.82,69.14-20.82v17.33c-34.31,0-49.37,8.04-55.97,14.79c-5.29,5.41-5.59,10.53-5.6,11.38l0.06,0.45    l-0.04,0.11c0,8.9,3.46,15.06,10,17.82c6.55,2.76,15.2,1.49,19.7-2.89c11.1-10.82,27.73-8.14,37.39,0.7    C162.69,527.84,166.54,543.59,153.8,559.23z M86.1,502.89L86.1,502.89C86.1,502.89,86.1,502.89,86.1,502.89z"/>
	</g>
	<g>
		<circle class="st0" cx="208.81" cy="422.56" r="11.89"/>
		<path d="M208.82,439.7c-0.57,0-1.15-0.03-1.73-0.09c-9.4-0.94-16.29-9.36-15.34-18.77s9.36-16.29,18.77-15.34    c9.4,0.94,16.29,9.36,15.34,18.77C224.98,433.1,217.51,439.7,208.82,439.7z M208.81,415.92c-3.36,0-6.26,2.56-6.6,5.97    c-0.37,3.64,2.3,6.9,5.94,7.27c3.64,0.36,6.9-2.3,7.27-5.94l5.23,0.52l-5.23-0.52c0.37-3.64-2.3-6.9-5.94-7.27    C209.25,415.93,209.03,415.92,208.81,415.92z"/>
	</g>
</g>
</svg>